<svg width="40" height="40" viewBox="0 0 40 40" fill="none" xmlns="http://www.w3.org/2000/svg">
<mask id="mask0_2005_1555" style="mask-type:alpha" maskUnits="userSpaceOnUse" x="0" y="0" width="40" height="40">
<path fill-rule="evenodd" clip-rule="evenodd" d="M9.94106 0.0175619L11.652 0L29.454 0.00687361C29.7239 0.00962361 29.8917 0.0129994 30.0596 0.0175619C30.9422 0.0409994 31.8324 0.0926878 32.7052 0.24775C33.5913 0.404875 34.4153 0.661938 35.2197 1.06719C36.0103 1.46481 36.7346 1.98444 37.3621 2.60544C37.9895 3.22494 38.5151 3.94031 38.9174 4.7225C39.3279 5.5185 39.5873 6.33313 39.7463 7.20906C39.9031 8.07188 39.9554 8.95194 39.9791 9.82444C39.9902 10.2248 39.9951 10.6252 39.9972 11.0263L39.9996 11.7394L40 27.5409C40 28.0164 40 28.4919 39.9972 28.9682C39.9951 29.3686 39.9902 29.769 39.9791 30.1694C39.9554 31.0412 39.9031 31.9219 39.7463 32.7841C39.5873 33.66 39.3279 34.4753 38.9174 35.2713C38.5151 36.0528 37.9895 36.7682 37.3621 37.3884C36.7346 38.0087 36.0103 38.529 35.2197 38.9266C34.4153 39.3319 33.5913 39.5889 32.7052 39.7461C31.8324 39.9011 30.9422 39.9528 30.0596 39.9763L27.4008 39.9969L10.5462 39.9869C10.2763 39.9842 10.1087 39.9808 9.94106 39.9763C9.0585 39.9528 8.16825 39.9011 7.29544 39.7461C6.40944 39.5889 5.58544 39.3319 4.78094 38.9266C3.98969 38.529 3.26606 38.0087 2.63863 37.3884C2.01125 36.7682 1.48556 36.0528 1.08263 35.2713C0.67275 34.4753 0.413374 33.66 0.253749 32.7841C0.0968739 31.9219 0.0453121 31.0412 0.0216246 30.1694C0.0104371 29.769 0.00556248 29.3686 0.00349998 28.9682L0.00043869 28.2543L0 12.4529C0 11.9774 -1.5134e-08 11.5012 0.00349998 11.0263C0.00556248 10.6252 0.0104371 10.2248 0.0216246 9.82444C0.0453121 8.95194 0.0968739 8.07188 0.253749 7.20906C0.413374 6.33313 0.67275 5.5185 1.08263 4.7225C1.48556 3.94031 2.01125 3.22494 2.63863 2.60544C3.26606 1.98444 3.98969 1.46481 4.78094 1.06719C5.58544 0.661938 6.40944 0.404875 7.29544 0.24775C8.16825 0.0926878 9.0585 0.0409994 9.94106 0.0175619Z" fill="white"/>
</mask>
<g mask="url(#mask0_2005_1555)">
<path d="M40 -0.00390625H0V39.9961H40V-0.00390625Z" fill="#19AA1E"/>
<path fill-rule="evenodd" clip-rule="evenodd" d="M0 -0.00390625H40V13.1211L0 6.87109V-0.00390625Z" fill="#FFB919"/>
<path fill-rule="evenodd" clip-rule="evenodd" d="M0 35.6211L40 29.3711V39.9961H0V35.6211Z" fill="#82D714"/>
<path fill-rule="evenodd" clip-rule="evenodd" d="M0 6.08008L13.9623 8.26164C15.7004 7.16145 17.7681 6.55826 20 6.55826C23.0912 6.55826 25.8677 7.71545 27.8893 9.74745C28.1444 10.0039 28.3851 10.272 28.6107 10.5505L40 12.33V13.9115L29.7672 12.3126C30.5274 13.7715 30.9375 15.397 30.9375 17.0558C30.9375 19.1988 30.4581 21.3355 29.4673 23.4807L29.4371 23.5457L29.0163 24.4475H28.0212C25.9664 24.4475 24.6033 25.0621 23.7122 26.1515C23.0124 27.0068 22.6078 28.1598 22.4717 29.4178L22.4676 29.4571L22.4476 29.6581L22.4392 29.7456L22.423 29.9166C22.3709 30.4783 22.3361 30.9546 22.3184 31.3428L40 28.58V30.1615L0 36.4115V34.83L17.7016 32.0641L17.6938 31.7091L17.6914 31.609L17.6899 31.5576L17.6872 31.4784C17.6712 31.0479 17.6318 30.496 17.5686 29.8272L17.5565 29.7004L17.5349 29.4808C17.4078 28.2161 17.0093 27.0485 16.3114 26.1805C15.4296 25.0837 14.0791 24.46 12.0408 24.4476L11.9788 24.4475H10.9837L10.5629 23.5457C9.55156 21.3786 9.0625 19.2205 9.0625 17.0558C9.0625 14.3336 10.1669 11.7013 12.1107 9.74745C12.1668 9.69108 12.2235 9.63533 12.2808 9.58033L0 7.66145V6.08008Z" fill="white"/>
<path fill-rule="evenodd" clip-rule="evenodd" d="M20 8.12109C25.5844 8.12109 29.375 12.4194 29.375 17.0561C29.375 18.9176 28.9689 20.8546 28.0212 22.8853C22.5262 22.8853 21.1698 26.8205 20.9134 29.2965L20.8969 29.4615C20.8101 30.3452 20.7598 31.0543 20.7461 31.5888L19.2577 31.8213L19.2573 31.7732C19.2517 31.2129 19.1987 30.4269 19.0985 29.4152L19.0941 29.3711C18.8572 26.9004 17.5293 22.8853 11.9788 22.8853C11.0311 20.8546 10.625 18.9176 10.625 17.0561C10.625 12.4194 14.4156 8.12109 20 8.12109Z" fill="#0073FA"/>
</g>
</svg>
