<svg width="24" height="38" viewBox="0 0 24 38" fill="none" xmlns="http://www.w3.org/2000/svg">
<path fill-rule="evenodd" clip-rule="evenodd" d="M15.1665 8.13262C13.4177 6.46313 10.5823 6.46314 8.83348 8.13263L8.0798 8.85212C6.33098 10.5216 6.33098 13.2284 8.0798 14.8979L8.83348 15.6174C10.5823 17.2869 13.4177 17.2869 15.1665 15.6174L15.9202 14.8979C17.669 13.2284 17.669 10.5216 15.9202 8.85212L15.1665 8.13262ZM10.9445 10.1479C11.5274 9.59138 12.4726 9.59138 13.0555 10.1479L13.8092 10.8674C14.3921 11.4239 14.3921 12.3261 13.8092 12.8826L13.0555 13.6021C12.4726 14.1586 11.5274 14.1586 10.9445 13.6021L10.1908 12.8826C9.60787 12.3261 9.60787 11.4239 10.1908 10.8674L10.9445 10.1479Z" fill="#7A804A"/>
<path d="M9.01458 19.95C8.19018 19.95 7.52187 20.588 7.52187 21.375C7.52187 22.162 8.19018 22.8 9.01458 22.8H14.9854C15.8098 22.8 16.4781 22.162 16.4781 21.375C16.4781 20.588 15.8098 19.95 14.9854 19.95H9.01458Z" fill="#7A804A"/>
<path fill-rule="evenodd" clip-rule="evenodd" d="M4.47892 0C1.76246 0 -0.32838 2.29022 0.0427894 4.85913L3.28336 27.2875C3.46896 28.5721 4.34907 29.6206 5.53159 30.1069V33.725C5.53159 36.086 7.53651 38 10.0097 38H13.9903C16.4635 38 18.4684 36.086 18.4684 33.725V30.1069C19.6509 29.6206 20.531 28.5721 20.7166 27.2875L23.9572 4.85912C24.3284 2.29021 22.2375 0 19.5211 0H4.47892ZM8.51701 33.725V30.4H15.483V33.725C15.483 34.512 14.8147 35.15 13.9903 35.15H10.0097C9.18532 35.15 8.51701 34.512 8.51701 33.725ZM3.00021 4.46971C2.87649 3.6134 3.57344 2.85 4.47892 2.85H19.5211C20.4266 2.85 21.1235 3.6134 20.9998 4.46971L17.7592 26.8981C17.7052 27.2717 17.3708 27.55 16.9757 27.55H7.0243C6.62924 27.55 6.29476 27.2717 6.24078 26.8981L3.00021 4.46971Z" fill="#7A804A"/>
</svg>
