<svg width="38" height="38" viewBox="0 0 38 38" fill="none" xmlns="http://www.w3.org/2000/svg">
<path fill-rule="evenodd" clip-rule="evenodd" d="M22.4609 1.00348C21.1229 -0.334492 18.9536 -0.334493 17.6157 1.00348L12.0783 6.54087C10.7403 7.87884 10.7403 10.0481 12.0783 11.3861L16.5774 15.8852L1.00348 31.4591C-0.334493 32.7971 -0.334492 34.9664 1.00348 36.3043L1.69565 36.9965C3.03362 38.3345 5.2029 38.3345 6.54087 36.9965L22.1148 21.4226L26.6139 25.9217C27.9519 27.2597 30.1212 27.2597 31.4591 25.9217L36.9965 20.3843C38.3345 19.0464 38.3345 16.8771 36.9965 15.5391L22.4609 1.00348ZM3.08 33.5357L18.6539 17.9617L20.0383 19.3461L4.46435 34.92C4.27321 35.1111 3.96331 35.1111 3.77217 34.92L3.08 34.2278C2.88886 34.0367 2.88886 33.7268 3.08 33.5357ZM19.6922 3.08C19.8833 2.88886 20.1932 2.88886 20.3843 3.08L34.92 17.6157C35.1111 17.8068 35.1111 18.1167 34.92 18.3078L33.1896 20.0383L17.9617 4.81043L19.6922 3.08ZM15.8852 6.88696L31.113 22.1148L29.3826 23.8452C29.1915 24.0364 28.8816 24.0364 28.6904 23.8452L14.1548 9.30956C13.9636 9.11843 13.9636 8.80853 14.1548 8.61739L15.8852 6.88696Z" fill="#7A804A"/>
</svg>
