<svg width="64" height="32" viewBox="0 0 64 32" fill="none" xmlns="http://www.w3.org/2000/svg">
<path d="M58.3713 23.0065H55.1401V26.2484H58.3713V23.0065Z" fill="#7A804A"/>
<path d="M58.2671 5.64706H55.0358V8.88889L58.2671 8.88889V5.64706Z" fill="#7A804A"/>
<path d="M56.912 17.2549H53.6808V20.4967H56.912V17.2549Z" fill="#7A804A"/>
<path d="M53.9935 11.3987H50.7622V14.6405H53.9935V11.3987Z" fill="#7A804A"/>
<path d="M50.9707 23.0065L47.7394 23.0065V26.2484L50.9707 26.2484V23.0065Z" fill="#7A804A"/>
<path d="M49.6156 7.00654H46.3844V10.2484H49.6156V7.00654Z" fill="#7A804A"/>
<path d="M49.6156 15.7908L46.3844 15.7908V19.0327L49.6156 19.0327V15.7908Z" fill="#7A804A"/>
<path d="M45.2378 21.5425H42.0065V24.7843H45.2378V21.5425Z" fill="#7A804A"/>
<path d="M43.7785 11.3987H40.5472V14.6405H43.7785V11.3987Z" fill="#7A804A"/>
<path d="M40.8599 5.64706H37.6287V8.88889H40.8599V5.64706Z" fill="#7A804A"/>
<path d="M40.8599 17.2549H37.6287V20.4967H40.8599V17.2549Z" fill="#7A804A"/>
<path d="M39.5049 23.0065H36.2736V26.2484H39.5049V23.0065Z" fill="#7A804A"/>
<path d="M36.5863 9.93464H33.355V13.1765H36.5863V9.93464Z" fill="#7A804A"/>
<path d="M33.6677 15.7908H30.4365V19.0327H33.6677V15.7908Z" fill="#7A804A"/>
<path d="M32.2085 5.64706H28.9772V8.88889H32.2085V5.64706Z" fill="#7A804A"/>
<path d="M32.2085 23.0065H28.9772V26.2484H32.2085V23.0065Z" fill="#7A804A"/>
<path fill-rule="evenodd" clip-rule="evenodd" d="M0 20.6013L23.3485 20.6013V25.8301C23.3485 27.7336 24.3489 28.9623 25.3781 29.98C26.6552 31.2428 28.1692 32 29.9153 32H57.4332C59.1794 32 60.6933 31.2428 61.9705 29.98C62.9997 28.9623 64 27.7336 64 25.8301V16.6742V16.5904C64 13.3521 64 10.0747 64 6.16993C64 4.26634 62.9996 3.03768 61.9705 2.02004C60.6934 0.757233 59.1794 -3.00506e-06 57.4332 1.20678e-06C52.0767 1.41363e-05 47.4211 8.94561e-06 42.6234 3.54922e-06L29.9153 0C28.1692 2.1175e-06 26.6552 0.757226 25.3781 2.02004C24.3489 3.03769 23.3485 4.26636 23.3485 6.16993V11.3987L4.00949e-07 11.3987L0 20.6013ZM23.3485 17.4641V14.5359H20.6384V17.4641H23.3485ZM17.5114 17.4641V14.5359L3.12704 14.5359V17.464L17.5114 17.4641ZM60.873 25.8301C60.873 26.4363 60.6394 26.8912 59.7754 27.7455C58.9507 28.561 58.1887 28.8627 57.4332 28.8627H29.9153C29.1598 28.8627 28.3978 28.561 27.5731 27.7455C26.7091 26.8912 26.4756 26.4363 26.4756 25.8301V6.16994C26.4756 5.5637 26.7091 5.10876 27.5731 4.25447C28.3978 3.43897 29.1598 3.13726 29.9153 3.13725L42.6234 3.13726C47.4211 3.13726 52.0767 3.13727 57.4332 3.13726C58.1887 3.13725 58.9507 3.43897 59.7755 4.25447C60.6394 5.10876 60.873 5.5637 60.873 6.16993C60.873 10.0283 60.873 13.274 60.873 16.4746V16.5291V16.5865V25.8301ZM58.3713 23.0065V26.2484H55.1401V23.0065H58.3713ZM58.2671 5.64706V8.88889L55.0358 8.88889V5.64706H58.2671ZM56.912 17.2549V20.4967H53.6808V17.2549H56.912ZM53.9935 11.3987V14.6405H50.7622V11.3987H53.9935ZM50.9707 23.0065V26.2484L47.7394 26.2484V23.0065L50.9707 23.0065ZM49.6156 7.00654V10.2484H46.3844V7.00654H49.6156ZM49.6156 15.7908V19.0327L46.3844 19.0327V15.7908L49.6156 15.7908ZM45.2378 21.5425V24.7843H42.0065V21.5425H45.2378ZM43.7785 11.3987V14.6405H40.5472V11.3987H43.7785ZM40.8599 5.64706V8.88889H37.6287V5.64706H40.8599ZM40.8599 17.2549V20.4967H37.6287V17.2549H40.8599ZM39.5049 23.0065V26.2484H36.2736V23.0065H39.5049ZM36.5863 9.93464V13.1765H33.355V9.93464H36.5863ZM33.6677 15.7908V19.0327H30.4365V15.7908H33.6677ZM32.2085 5.64706V8.88889H28.9772V5.64706H32.2085ZM32.2085 23.0065V26.2484H28.9772V23.0065H32.2085Z" fill="#7A804A"/>
</svg>
