<svg width="22" height="38" viewBox="0 0 22 38" fill="none" xmlns="http://www.w3.org/2000/svg">
<path fill-rule="evenodd" clip-rule="evenodd" d="M2.62935 0.163118C2.92198 -0.0246525 3.2882 -0.0517054 3.60425 0.0894587L10.3745 3.11526C10.7423 3.27961 10.9871 3.64779 10.9871 4.06283V11.0477H11.1814C11.7398 11.0477 12.2135 11.5004 12.2135 12.0848V15.7227C12.7248 15.7755 13.1399 16.2072 13.1399 16.7543V36.9629C13.1399 37.5473 12.6662 38 12.1079 38H1.03206C0.473703 38 0 37.5473 0 36.9629V16.7544C0 16.2072 0.415263 15.7755 0.926463 15.7227V12.0849C0.926463 11.5005 1.40017 11.0478 1.95852 11.0478H2.15284V1.03707C2.15284 0.679482 2.33549 0.351673 2.62935 0.163118ZM4.21695 11.0478V2.6334L8.92299 4.73667V11.0478H4.21695ZM2.99057 13.122V15.7172H10.1494L10.1494 13.122H2.99057ZM2.06411 17.7914H11.0758V35.9259H2.06411V17.7914Z" fill="#7A804A"/>
<path fill-rule="evenodd" clip-rule="evenodd" d="M16.8299 0C16.2874 0 15.822 0.427768 15.7987 0.994386L15.4701 9.00581C15.4584 9.29204 15.5648 9.56829 15.761 9.7712C15.9567 9.97364 16.2243 10.0856 16.5012 10.0856H16.7614V16.6509H16.2062C15.6479 16.6509 15.1742 17.1036 15.1742 17.688V20.5059H14.619C14.0606 20.5059 13.5869 20.9586 13.5869 21.543V36.9629C13.5869 37.5473 14.0606 38 14.619 38H20.9679C21.5263 38 22 37.5473 22 36.9629V21.543C22.0001 20.9585 21.5263 20.5058 20.968 20.5058H20.4128V17.6879C20.4128 17.1035 19.9391 16.6508 19.3808 16.6508H18.8256V10.0856H19.0857C19.3628 10.0856 19.6303 9.9734 19.8259 9.77124C20.022 9.56845 20.1287 9.29215 20.1169 9.00574L19.7883 0.994385C19.7649 0.427973 19.2997 0 18.7571 0H16.8299ZM17.2383 20.5058V18.725H18.3487V20.5058H17.2383ZM19.9359 22.5801H15.651V35.9259H19.9359V22.5801ZM16.7544 1.03506C16.7553 1.01216 16.7783 0.974359 16.8299 0.974359H18.7571C18.8084 0.974359 18.8316 1.01207 18.8326 1.03518L18.8722 2L18.9132 3L18.9542 4L18.9952 5L19.0362 6L19.0772 7L19.1061 7.70356L19.1388 8.5L19.1612 9.04659C19.1617 9.05935 19.1572 9.07427 19.1445 9.08737C19.1312 9.10115 19.1102 9.1112 19.0857 9.1112H17.8691L17.7179 9.11127H16.5012C16.4767 9.11127 16.4557 9.1012 16.4426 9.08756C16.4298 9.07441 16.4253 9.05941 16.4258 9.04642L16.7544 1.03506Z" fill="#7A804A"/>
<path d="M19.1061 7.70356H17.5V8.5H19.1388L19.1061 7.70356Z" fill="#7A804A"/>
<path d="M19.0362 6H17.5V7H19.0772L19.0362 6Z" fill="#7A804A"/>
<path d="M18.9542 4H17.5V5H18.9952L18.9542 4Z" fill="#7A804A"/>
<path d="M18.8722 2H17.5V3H18.9132L18.8722 2Z" fill="#7A804A"/>
</svg>
