<svg width="18" height="38" viewBox="0 0 18 38" fill="none" xmlns="http://www.w3.org/2000/svg">
<path d="M3.21429 9.80645C3.6 9.80645 3.85714 9.56129 3.85714 9.19355V7.96774C3.85714 7.6 3.6 7.35484 3.21429 7.35484C2.82857 7.35484 2.57143 7.6 2.57143 7.96774V9.19355C2.57143 9.56129 2.82857 9.80645 3.21429 9.80645Z" fill="#7A804A"/>
<path d="M15.8143 31.9323C15.4929 31.8097 15.1071 31.9935 14.9786 32.3C14.0143 34.9968 11.3786 36.7742 8.35714 36.7742C4.43571 36.7742 1.28571 33.771 1.28571 30.0323C1.28571 28.1323 2.12143 26.2935 3.66429 25.0065C3.79286 24.8839 3.85714 24.7 3.85714 24.5774V11.9516C3.85714 11.5839 3.6 11.3387 3.21429 11.3387C2.82857 11.3387 2.57143 11.5839 2.57143 11.9516V24.271C0.964286 25.7419 0 27.8258 0 30.0323C0 34.4452 3.72857 38 8.35714 38C11.8929 38 15.0429 35.8548 16.2643 32.6677C16.3286 32.3613 16.2 31.9935 15.8143 31.9323Z" fill="#7A804A"/>
<path d="M14.1429 5.51613C14.1429 2.45161 11.5714 0 8.35714 0C5.14286 0 2.57143 2.45161 2.57143 5.51613C2.57143 5.88387 2.82857 6.12903 3.21429 6.12903C3.6 6.12903 3.85714 5.88387 3.85714 5.51613C3.85714 3.12581 5.85 1.22581 8.35714 1.22581C10.8643 1.22581 12.8571 3.12581 12.8571 5.51613V24.5161C12.8571 24.7 12.9214 24.8839 13.05 24.9452C14.5286 26.2323 15.4286 28.071 15.4286 29.971C15.4286 30.3387 15.6857 30.5839 16.0714 30.5839C16.4571 30.5839 16.7143 30.3387 16.7143 29.971C16.7143 27.8258 15.75 25.7419 14.1429 24.2097V5.51613Z" fill="#7A804A"/>
<path d="M5.46429 25.2516C3.66429 26.2323 2.57143 28.071 2.57143 30.0323C2.57143 33.0968 5.14286 35.5484 8.35714 35.5484C11.5714 35.5484 14.1429 33.0968 14.1429 30.0323C14.1429 28.1935 13.1786 26.4774 11.5714 25.4355V5.51613C11.5714 3.8 10.1571 2.45161 8.35714 2.45161C6.55714 2.45161 5.14286 3.8 5.14286 5.51613V23.7194C5.14286 24.0871 5.4 24.3323 5.78571 24.3323C6.17143 24.3323 6.42857 24.0871 6.42857 23.7194V16.5484C7.13571 16.8548 7.90714 16.7935 8.67857 16.4871C9.64286 15.9968 10.2857 16.7935 10.2857 16.7935V25.8032C10.2857 26.0484 10.4143 26.2323 10.6071 26.3548C12.0214 27.0903 12.8571 28.5613 12.8571 30.0935C12.8571 32.4839 10.8643 34.3839 8.35714 34.3839C5.85 34.3839 3.85714 32.4839 3.85714 30.0935C3.85714 28.5613 4.69286 27.1516 6.10714 26.3548C6.42857 26.171 6.49286 25.8032 6.36429 25.4968C6.17143 25.1903 5.78571 25.0677 5.46429 25.2516ZM10.2857 15.3226C9.57857 15.0161 8.80714 15.0774 8.03571 15.3839C6.94286 15.8129 6.42857 15.0774 6.42857 15.0774V5.51613C6.42857 4.47419 7.26429 3.67742 8.35714 3.67742C9.45 3.67742 10.2857 4.47419 10.2857 5.51613V15.3226Z" fill="#7A804A"/>
<path d="M17.3571 22.0645H16.0714C15.6857 22.0645 15.4286 22.3097 15.4286 22.6774C15.4286 23.0452 15.6857 23.2903 16.0714 23.2903H17.3571C17.7429 23.2903 18 23.0452 18 22.6774C18 22.3097 17.7429 22.0645 17.3571 22.0645Z" fill="#7A804A"/>
<path d="M17.3571 18.3871H16.0714C15.6857 18.3871 15.4286 18.6323 15.4286 19C15.4286 19.3677 15.6857 19.6129 16.0714 19.6129H17.3571C17.7429 19.6129 18 19.3677 18 19C18 18.6323 17.7429 18.3871 17.3571 18.3871Z" fill="#7A804A"/>
<path d="M17.3571 14.7097H16.0714C15.6857 14.7097 15.4286 14.9548 15.4286 15.3226C15.4286 15.6903 15.6857 15.9355 16.0714 15.9355H17.3571C17.7429 15.9355 18 15.6903 18 15.3226C18 14.9548 17.7429 14.7097 17.3571 14.7097Z" fill="#7A804A"/>
<path d="M17.3571 11.0323H16.0714C15.6857 11.0323 15.4286 11.2774 15.4286 11.6452C15.4286 12.0129 15.6857 12.2581 16.0714 12.2581H17.3571C17.7429 12.2581 18 12.0129 18 11.6452C18 11.2774 17.7429 11.0323 17.3571 11.0323Z" fill="#7A804A"/>
<path d="M16.0714 8.58065H17.3571C17.7429 8.58065 18 8.33548 18 7.96774C18 7.6 17.7429 7.35484 17.3571 7.35484H16.0714C15.6857 7.35484 15.4286 7.6 15.4286 7.96774C15.4286 8.33548 15.6857 8.58065 16.0714 8.58065Z" fill="#7A804A"/>
<path d="M5.78571 29.4194C5.4 29.4194 5.14286 29.6645 5.14286 30.0323C5.14286 31.7484 6.55714 33.0968 8.35714 33.0968C8.74286 33.0968 9 32.8516 9 32.4839C9 32.1161 8.74286 31.871 8.35714 31.871C7.26429 31.871 6.42857 31.0742 6.42857 30.0323C6.42857 29.6645 6.17143 29.4194 5.78571 29.4194Z" fill="#7A804A"/>
</svg>
