<svg width="30" height="38" viewBox="0 0 30 38" fill="none" xmlns="http://www.w3.org/2000/svg">
<path fill-rule="evenodd" clip-rule="evenodd" d="M7.09091 0.535211C5.58468 0.535211 4.36364 1.73332 4.36364 3.21127V8.17663C4.36364 8.63964 4.15994 9.0801 3.80483 9.38499L1.67643 11.2124C0.611084 12.127 0 13.4484 0 14.8375V33.1831C0 35.8434 2.19787 38 4.90909 38H13.6364C16.3476 38 18.5455 35.8434 18.5455 33.1831V14.8375C18.5455 13.4484 17.9344 12.127 16.869 11.2124L14.7406 9.38499C14.3855 9.0801 14.1818 8.63964 14.1818 8.17663V6.95775H16.9091C17.8128 6.95775 18.5455 6.23888 18.5455 5.35211C18.5455 4.46535 17.8128 3.74648 16.9091 3.74648H14.1818V3.21127C14.1818 1.73332 12.9608 0.535211 11.4545 0.535211H7.09091ZM7.63636 8.17663V3.74648H10.9091V8.17663C10.9091 9.56565 11.5202 10.887 12.5855 11.8017L14.7139 13.6291C15.069 13.934 15.2727 14.3744 15.2727 14.8375V33.1831C15.2727 34.0699 14.5401 34.7887 13.6364 34.7887H4.90909C4.00535 34.7887 3.27273 34.0699 3.27273 33.1831V14.8375C3.27273 14.3744 3.47642 13.934 3.83154 13.6291L5.95993 11.8017C7.02528 10.887 7.63636 9.56565 7.63636 8.17663Z" fill="#7A804A"/>
<path d="M23.4545 5.35211C23.4545 5.94329 22.9661 6.42253 22.3636 6.42253C21.7611 6.42253 21.2727 5.94329 21.2727 5.35211C21.2727 4.76093 21.7611 4.28169 22.3636 4.28169C22.9661 4.28169 23.4545 4.76093 23.4545 5.35211Z" fill="#7A804A"/>
<path d="M26.7273 3.21127C26.7273 3.80245 26.2389 4.28169 25.6364 4.28169C25.0339 4.28169 24.5455 3.80245 24.5455 3.21127C24.5455 2.62009 25.0339 2.14085 25.6364 2.14085C26.2389 2.14085 26.7273 2.62009 26.7273 3.21127Z" fill="#7A804A"/>
<path d="M26.7273 7.49296C26.7273 8.08414 26.2389 8.56338 25.6364 8.56338C25.0339 8.56338 24.5455 8.08414 24.5455 7.49296C24.5455 6.90178 25.0339 6.42253 25.6364 6.42253C26.2389 6.42253 26.7273 6.90178 26.7273 7.49296Z" fill="#7A804A"/>
<path d="M30 1.07042C30 1.6616 29.5116 2.14085 28.9091 2.14085C28.3066 2.14085 27.8182 1.6616 27.8182 1.07042C27.8182 0.479244 28.3066 0 28.9091 0C29.5116 0 30 0.479244 30 1.07042Z" fill="#7A804A"/>
<path d="M30 5.35211C30 5.94329 29.5116 6.42253 28.9091 6.42253C28.3066 6.42253 27.8182 5.94329 27.8182 5.35211C27.8182 4.76093 28.3066 4.28169 28.9091 4.28169C29.5116 4.28169 30 4.76093 30 5.35211Z" fill="#7A804A"/>
<path d="M30 9.6338C30 10.225 29.5116 10.7042 28.9091 10.7042C28.3066 10.7042 27.8182 10.225 27.8182 9.6338C27.8182 9.04262 28.3066 8.56338 28.9091 8.56338C29.5116 8.56338 30 9.04262 30 9.6338Z" fill="#7A804A"/>
</svg>
