<svg width="38" height="38" viewBox="0 0 38 38" fill="none" xmlns="http://www.w3.org/2000/svg">
<path d="M0.306013 30.32L7.69499 37.6946C8.10312 38.1018 8.76456 38.1018 9.17287 37.6946L12.8673 34.0073C13.2753 33.6001 13.2753 32.9397 12.8673 32.5323L11.759 31.4262L13.9755 29.214L17.4852 32.7169C17.8933 33.124 18.5548 33.124 18.9631 32.7169L22.6575 29.0296C23.0655 28.6224 23.0655 27.962 22.6575 27.5546L20.995 25.8954L31.3395 15.571C33.5451 13.3696 33.76 9.923 31.9853 7.47819L37.694 1.78049C38.102 1.37324 38.102 0.712823 37.694 0.305484C37.4899 0.101945 37.2225 2.33309e-08 36.9551 0C36.6877 -2.33308e-08 36.4203 0.101859 36.2162 0.305484L30.4942 6.01629C29.4207 5.26772 28.1638 4.89162 26.9061 4.89162C25.3005 4.89162 23.6951 5.50154 22.4727 6.72139L12.1282 17.0457L10.4657 15.3865C10.2616 15.1829 9.99418 15.081 9.72678 15.081C9.45939 15.081 9.19199 15.1828 8.98788 15.3865L5.29348 19.0737C4.88544 19.4809 4.88544 20.1413 5.29348 20.5487L8.80316 24.0515L6.58664 26.2637L5.47838 25.1576C5.27427 24.9541 5.00688 24.8521 4.73948 24.8521C4.47209 24.8521 4.2047 24.954 4.00059 25.1576L0.306185 28.8448C-0.102034 29.2524 -0.102032 29.9127 0.306013 30.32ZM15.8598 16.2715L18.1873 18.5945C18.5955 19.0017 19.2569 19.0017 19.6652 18.5945C20.0733 18.1872 20.0733 17.5268 19.6652 17.1195L17.3377 14.7965L18.8155 13.3216L21.143 15.6446C21.5511 16.0517 22.2126 16.0517 22.6209 15.6446C23.0289 15.2373 23.0289 14.5769 22.6209 14.1696L20.2934 11.8466L21.7712 10.3716L24.0987 12.6946C24.5068 13.1018 25.1683 13.1018 25.5766 12.6946C25.9846 12.2874 25.9846 11.627 25.5766 11.2196L23.249 8.89663L23.9509 8.19613C25.5807 6.56956 28.2324 6.56956 29.862 8.19613C31.4918 9.82263 31.4918 12.4693 29.862 14.0957L19.5176 24.42L13.6065 18.5204L15.8598 16.2715ZM7.51026 19.8112L9.72696 17.5988L20.4409 28.2919L18.2242 30.5043L7.51026 19.8112ZM10.2811 25.5265L12.4978 27.7389L10.2813 29.9511L8.06461 27.7387L10.2811 25.5265ZM4.7394 27.3702L10.6505 33.2698L8.4338 35.4822L2.52271 29.5826L4.7394 27.3702Z" fill="#7A804A"/>
</svg>
