<svg width="3.8rem" height="3.8rem" viewBox="0 0 38 38" fill="none" xmlns="http://www.w3.org/2000/svg">
<path fill-rule="evenodd" clip-rule="evenodd" d="M28 19C28 23.9706 23.9706 28 19 28C14.0294 28 10 23.9706 10 19C10 14.0294 14.0294 10 19 10C23.9706 10 28 14.0294 28 19ZM26 19C26 22.866 22.866 26 19 26C15.134 26 12 22.866 12 19C12 15.134 15.134 12 19 12C22.866 12 26 15.134 26 19Z" fill="#7A804A"/>
<path d="M18 0H20V8H18V0Z" fill="#7A804A"/>
<path d="M18 30H20V38H18V30Z" fill="#7A804A"/>
<path d="M38 18V20H30V18H38Z" fill="#7A804A"/>
<path d="M8 18V20H0L8.74224e-08 18H8Z" fill="#7A804A"/>
<path d="M27.6338 2.04541L29.3658 3.04541L25.3658 9.97361L23.6338 8.97361L27.6338 2.04541Z" fill="#7A804A"/>
<path d="M12.6338 28.0264L14.3658 29.0264L10.3658 35.9546L8.63379 34.9546L12.6338 28.0264Z" fill="#7A804A"/>
<path d="M35.9541 27.6338L34.9541 29.3658L28.0259 25.3658L29.0259 23.6338L35.9541 27.6338Z" fill="#7A804A"/>
<path d="M9.97363 12.6338L8.97363 14.3658L2.04543 10.3658L3.04543 8.63379L9.97363 12.6338Z" fill="#7A804A"/>
<path d="M34.9541 8.63379L35.9541 10.3658L29.0259 14.3658L28.0259 12.6338L34.9541 8.63379Z" fill="#7A804A"/>
<path d="M8.97363 23.6343L9.97363 25.3663L3.04543 29.3663L2.04543 27.6343L8.97363 23.6343Z" fill="#7A804A"/>
<path d="M29.3652 34.9541L27.6332 35.9541L23.6332 29.0259L25.3652 28.0259L29.3652 34.9541Z" fill="#7A804A"/>
<path d="M14.3662 8.97363L12.6342 9.97363L8.63416 3.04543L10.3662 2.04543L14.3662 8.97363Z" fill="#7A804A"/>
</svg>
