<svg width="50" height="60" viewBox="0 0 50 60" fill="none"
    xmlns="http://www.w3.org/2000/svg">
    <rect width="50" height="60" fill="#007DBC" />
    <path
        d="M4.5459 12.2578V28.8707H8.11733V21.9352H12.6628V19.1933H8.11733V15.161H22.7277C23.7017 15.161 24.5345 15.6436 25.3251 16.4514C26.4623 17.6131 26.4616 20.1157 26.4615 20.4744V20.4836V20.4928C26.4616 20.8516 26.4623 23.3541 25.3251 24.5159C24.5345 25.3236 24.0264 25.8062 22.7277 25.8062H18.9939V19.1933H15.4225V28.8707H20.942C23.5394 28.8707 25.6498 28.5527 26.4615 28.0643C27.9613 27.1618 28.6321 26.2512 29.3836 24.6772C30.0896 23.1983 30.1952 21.1288 30.1952 20.5643C30.1952 19.9998 30.0896 17.9302 29.3836 16.4514C28.6321 14.8773 27.8643 14.1095 26.4615 13.0643C25.8121 12.5804 23.5394 12.2578 20.942 12.2578H4.5459Z"
        fill="white" />
    <path
        d="M35.7147 12.2578L29.2212 28.8707H33.1173L34.3161 24.9997H38.4745L37.6628 22.2578H35.1653L37.0134 16.2901H37.6628L41.5589 28.8707H45.455L38.9615 12.2578H35.7147Z"
        fill="white" />
</svg>