<svg width="40" height="40" viewBox="0 0 40 40" fill="none" xmlns="http://www.w3.org/2000/svg">
<g clip-path="url(#clip0_2044_13)">
<path d="M24.4559 0.638672C27.9488 1.75009 30.9427 4.0769 32.742 7.51871L24.3344 17.3782C24.4271 17.2685 25.5631 15.8832 25.5631 13.947C25.5631 10.9175 22.9699 8.63371 20.1654 8.63371C17.7829 8.63371 16.3099 10.1566 16.0295 10.4731L15.9805 10.5303C15.9805 10.5303 15.9969 10.5098 16.0295 10.4731L24.4559 0.638672Z" fill="#4285F4"/>
<path d="M9.30078 4.98345C11.3914 2.53116 15.0555 0 20.1182 0C22.5657 0 24.4269 0.638169 24.4269 0.638169L15.977 10.5262L9.30078 4.98345Z" fill="#1A73E8"/>
<path d="M13.8047 29.6394C15.0613 31.1846 16.336 33.1206 17.0062 34.293C17.8071 35.7888 18.1447 36.8078 18.7322 38.5812L18.7654 38.6813C19.1223 39.6923 19.4574 40.0007 20.1676 40.0007C20.9434 40.0007 21.2967 39.4844 21.5699 38.6813C22.1344 36.9496 22.5752 35.6339 23.2635 34.3754C24.6221 31.9662 26.3412 29.8222 28.013 27.7643C28.4719 27.1871 31.4039 23.7883 32.7224 21.0922C32.7224 21.0922 34.3322 18.1452 34.3322 14.0258C34.3322 10.1752 32.7406 7.49707 32.7406 7.49707L13.8047 29.6394Z" fill="#34A853"/>
<path d="M13.8077 29.6401C11.819 27.005 8.9089 24.0185 7.38281 20.5982L15.9702 10.5456C15.9803 10.5335 15.9857 10.5273 15.9857 10.5273L15.9702 10.5456C15.8275 10.7155 14.751 12.0608 14.751 13.9656C14.751 16.9305 17.1767 19.2789 20.1706 19.2789C22.4295 19.2789 23.8404 17.9157 24.226 17.4899L24.3337 17.3644C24.3337 17.3644 24.2974 17.4111 24.226 17.4899L13.8077 29.6401Z" fill="#FBBC04"/>
<path d="M7.3804 20.597C7.3804 20.597 6 17.8973 6 14.0074C6 10.3218 7.46417 7.10582 9.32535 5.00488L16.0015 10.544L7.3804 20.597Z" fill="#EA4335"/>
</g>
<defs>
<clipPath id="clip0_2044_13">
<rect width="40" height="40" fill="white"/>
</clipPath>
</defs>
</svg>
