<svg width="30" height="42" viewBox="0 0 30 42" fill="none" xmlns="http://www.w3.org/2000/svg">
<path fill-rule="evenodd" clip-rule="evenodd" d="M29.8645 41.4783C29.8767 41.2293 29.8895 40.9656 29.9249 40.7098C30.1896 36.9109 29.7218 33.0242 28.9823 29.2811C28.1735 25.5145 27.046 21.7977 25.7161 18.2469C24.3604 14.532 22.6645 10.9373 20.3813 7.77032C19.263 6.23321 18.0548 4.74493 16.6427 3.42071C15.3471 2.21368 13.9137 0.959775 12.2841 0.342587C10.6544 -0.276553 8.99128 -0.0499909 7.61421 0.96954C6.05531 2.08477 4.93849 3.73517 4.02778 5.45489C2.05043 9.15118 1.24629 13.4715 0.576793 17.6033C0.285411 19.5272 -0.00523839 21.452 7.16688e-05 23.3973C0.0274765 25.2723 0.442882 27.1199 1.28889 28.7996C2.95961 32.2303 5.96784 35.0164 9.14649 37.0037C12.4628 39.0379 16.1786 40.2693 20.0397 40.5399C20.7067 40.5867 21.3821 40.617 22.0606 40.6473C24.7052 40.7635 27.3976 40.8836 29.8298 41.9998C29.8469 41.8397 29.8555 41.6629 29.8645 41.4783ZM13 20.9998C15.2092 20.9998 17 19.2088 17 16.9998C17 14.7908 15.2092 12.9998 13 12.9998C10.7908 12.9998 9.00001 14.7908 9.00001 16.9998C9.00001 19.2088 10.7908 20.9998 13 20.9998Z" fill="#AE242C"/>
</svg>
