<svg width="100" height="100" viewBox="0 0 100 100" fill="none" xmlns="http://www.w3.org/2000/svg">
<g clip-path="url(#clip0_1973_372)">
<mask id="mask0_1973_372" style="mask-type:luminance" maskUnits="userSpaceOnUse" x="0" y="0" width="100" height="100">
<path d="M100 0H0V100H100V0Z" fill="white"/>
</mask>
<g mask="url(#mask0_1973_372)">
<mask id="mask1_1973_372" style="mask-type:luminance" maskUnits="userSpaceOnUse" x="0" y="0" width="100" height="100">
<path d="M28.5433 0H71.4567C81.3817 0 84.9817 1.03333 88.61 2.97333C92.1961 4.87145 95.1286 7.80394 97.0267 11.39C98.9667 15.0183 100 18.6183 100 28.5433V71.4567C100 81.3817 98.9667 84.9817 97.0267 88.61C95.1286 92.1961 92.1961 95.1286 88.61 97.0267C84.9817 98.9667 81.3817 100 71.4567 100H28.5433C18.6183 100 15.0183 98.9667 11.39 97.0267C7.80394 95.1286 4.87145 92.1961 2.97333 88.61C1.03333 84.9817 0 81.3817 0 71.4567V28.5433C0 18.6183 1.03333 15.0183 2.97333 11.39C4.87145 7.80394 7.80394 4.87145 11.39 2.97333C15.0183 1.03333 18.6183 0 28.5433 0Z" fill="white"/>
</mask>
<g mask="url(#mask1_1973_372)">
<path d="M28.5433 0H71.4567C81.3817 0 84.9817 1.03333 88.61 2.97333C92.1961 4.87145 95.1286 7.80394 97.0267 11.39C98.9667 15.0183 100 18.6183 100 28.5433V71.4567C100 81.3817 98.9667 84.9817 97.0267 88.61C95.1286 92.1961 92.1961 95.1286 88.61 97.0267C84.9817 98.9667 81.3817 100 71.4567 100H28.5433C18.6183 100 15.0183 98.9667 11.39 97.0267C7.80394 95.1286 4.87145 92.1961 2.97333 88.61C1.03333 84.9817 0 81.3817 0 71.4567V28.5433C0 18.6183 1.03333 15.0183 2.97333 11.39C4.87145 7.80394 7.80394 4.87145 11.39 2.97333C15.0183 1.03333 18.6183 0 28.5433 0Z" fill="#C000FF"/>
<path d="M28.5433 0H71.4567C81.3817 0 84.9817 1.03333 88.61 2.97333C92.1961 4.87145 95.1286 7.80394 97.0267 11.39C98.9667 15.0183 100 18.6183 100 28.5433V71.4567C100 81.3817 98.9667 84.9817 97.0267 88.61C95.1286 92.1961 92.1961 95.1286 88.61 97.0267C84.9817 98.9667 81.3817 100 71.4567 100H28.5433C18.6183 100 15.0183 98.9667 11.39 97.0267C7.80394 95.1286 4.87145 92.1961 2.97333 88.61C1.03333 84.9817 0 81.3817 0 71.4567V28.5433C0 18.6183 1.03333 15.0183 2.97333 11.39C4.87145 7.80394 7.80394 4.87145 11.39 2.97333C15.0183 1.03333 18.6183 0 28.5433 0Z" fill="url(#paint0_linear_1973_372)"/>
<path style="mix-blend-mode:color-burn" d="M28.5433 0H71.4567C81.3817 0 84.9817 1.03333 88.61 2.97333C92.1961 4.87145 95.1286 7.80394 97.0267 11.39C98.9667 15.0183 100 18.6183 100 28.5433V71.4567C100 81.3817 98.9667 84.9817 97.0267 88.61C95.1286 92.1961 92.1961 95.1286 88.61 97.0267C84.9817 98.9667 81.3817 100 71.4567 100H28.5433C18.6183 100 15.0183 98.9667 11.39 97.0267C7.80394 95.1286 4.87145 92.1961 2.97333 88.61C1.03333 84.9817 0 81.3817 0 71.4567V28.5433C0 18.6183 1.03333 15.0183 2.97333 11.39C4.87145 7.80394 7.80394 4.87145 11.39 2.97333C15.0183 1.03333 18.6183 0 28.5433 0Z" fill="url(#paint1_radial_1973_372)" fill-opacity="0.9"/>
<path style="mix-blend-mode:soft-light" d="M28.5433 0H71.4567C81.3817 0 84.9817 1.03333 88.61 2.97333C92.1961 4.87145 95.1286 7.80394 97.0267 11.39C98.9667 15.0183 100 18.6183 100 28.5433V71.4567C100 81.3817 98.9667 84.9817 97.0267 88.61C95.1286 92.1961 92.1961 95.1286 88.61 97.0267C84.9817 98.9667 81.3817 100 71.4567 100H28.5433C18.6183 100 15.0183 98.9667 11.39 97.0267C7.80394 95.1286 4.87145 92.1961 2.97333 88.61C1.03333 84.9817 0 81.3817 0 71.4567V28.5433C0 18.6183 1.03333 15.0183 2.97333 11.39C4.87145 7.80394 7.80394 4.87145 11.39 2.97333C15.0183 1.03333 18.6183 0 28.5433 0Z" fill="url(#paint2_linear_1973_372)" fill-opacity="0.8"/>
<path d="M59.0261 19.3828V33.7995H50.0161C41.0595 33.7995 33.7995 41.0595 33.7995 50.0161C33.7995 58.9728 41.0595 66.2328 50.0161 66.2328C58.9728 66.2328 66.2328 58.9728 66.2328 50.0161V41.0061H80.6495V50.0161C80.6495 66.9328 66.9328 80.6495 50.0161 80.6495C33.0995 80.6495 19.3828 66.9328 19.3828 50.0161C19.3828 33.0995 33.0995 19.3828 50.0161 19.3828H59.0261Z" fill="white"/>
<path fill-rule="evenodd" clip-rule="evenodd" d="M73.3353 19.3828C74.2819 19.3828 75.2192 19.5693 76.0938 19.9315C76.9684 20.2938 77.763 20.8247 78.4324 21.4941C79.1017 22.1634 79.6327 22.9581 79.9949 23.8326C80.3572 24.7072 80.5436 25.6445 80.5436 26.5911C80.5436 27.5378 80.3572 28.4751 79.9949 29.3497C79.6327 30.2242 79.1017 31.0189 78.4324 31.6882C77.763 32.3576 76.9684 32.8885 76.0938 33.2508C75.2192 33.613 74.2819 33.7995 73.3353 33.7995C71.4235 33.7995 69.5901 33.04 68.2382 31.6882C66.8864 30.3364 66.127 28.5029 66.127 26.5911C66.127 24.6794 66.8864 22.8459 68.2382 21.4941C69.5901 20.1423 71.4235 19.3828 73.3353 19.3828Z" fill="#FF8500"/>
</g>
</g>
</g>
<defs>
<linearGradient id="paint0_linear_1973_372" x1="100" y1="0" x2="0" y2="100" gradientUnits="userSpaceOnUse">
<stop stop-color="#FF004B" stop-opacity="0.5"/>
<stop offset="1" stop-color="#FF004B" stop-opacity="0"/>
</linearGradient>
<radialGradient id="paint1_radial_1973_372" cx="0" cy="0" r="1" gradientUnits="userSpaceOnUse" gradientTransform="translate(-11.3917 -27.5533) scale(212.237)">
<stop stop-color="#3023AE"/>
<stop offset="1" stop-color="#C86DD7"/>
</radialGradient>
<linearGradient id="paint2_linear_1973_372" x1="100" y1="0" x2="-2.98932e-07" y2="69.3933" gradientUnits="userSpaceOnUse">
<stop stop-color="#FF004B" stop-opacity="0.5"/>
<stop offset="1" stop-color="#FF004B" stop-opacity="0"/>
</linearGradient>
<clipPath id="clip0_1973_372">
<rect width="100" height="100" fill="white"/>
</clipPath>
</defs>
</svg>
