<svg width="40" height="40" viewBox="0 0 40 40" fill="none" xmlns="http://www.w3.org/2000/svg">
<path d="M20 0C11.1632 0 4 7.1632 4 16C4 20.4168 5.7896 24.416 8.684 27.3112C11.5792 30.208 18.4 34.4 18.8 38.8C18.86 39.4597 19.3376 40 20 40C20.6624 40 21.14 39.4597 21.2 38.8C21.6 34.4 28.4208 30.208 31.316 27.3112C34.2104 24.416 36 20.4168 36 16C36 7.1632 28.8368 0 20 0Z" fill="#FF4433"/>
<path d="M20.0023 21.6004C23.0951 21.6004 25.6023 19.0932 25.6023 16.0004C25.6023 12.9076 23.0951 10.4004 20.0023 10.4004C16.9096 10.4004 14.4023 12.9076 14.4023 16.0004C14.4023 19.0932 16.9096 21.6004 20.0023 21.6004Z" fill="white"/>
</svg>
